<?xml version="1.0" standalone="no"?>
<!DOCTYPE svg PUBLIC "-//W3C//DTD SVG 20010904//EN"
 "http://www.w3.org/TR/2001/REC-SVG-20010904/DTD/svg10.dtd">
<svg version="1.0" xmlns="http://www.w3.org/2000/svg"
 width="700.000000pt" height="700.000000pt" viewBox="0 0 700.000000 700.000000"
 preserveAspectRatio="xMidYMid meet">
<metadata>
Created by potrace 1.11, written by Peter Selinger 2001-2013
</metadata>
<g transform="translate(0.000000,700.000000) scale(0.100000,-0.100000)"
fill="#000000" stroke="none">
<path d="M2370 5744 c0 -649 -1 -686 -17 -681 -319 91 -385 102 -618 102 -144
-1 -294 -9 -335 -20 -8 -2 -33 -6 -55 -10 -510 -74 -856 -398 -913 -854 -9
-72 -9 -1517 0 -1596 49 -433 313 -721 763 -834 44 -11 103 -23 130 -27 28 -4
57 -9 65 -10 80 -16 334 -22 470 -11 207 15 477 108 637 218 25 17 46 29 48
27 2 -1 23 -43 47 -93 l44 -90 274 0 275 0 3 2283 2 2282 -410 0 -410 0 0
-686z m-323 -1164 c93 -14 164 -33 256 -67 l67 -26 0 -993 0 -994 -57 -28
c-80 -40 -175 -70 -274 -86 -100 -17 -361 -14 -434 3 -27 7 -58 14 -69 17 -10
2 -46 16 -80 32 -100 48 -149 103 -187 212 l-23 65 -1 750 c-2 609 1 761 12
810 44 191 180 288 438 312 33 3 61 6 63 8 7 6 222 -5 289 -15z"/>
<path d="M4768 5165 c-2 -1 -37 -5 -78 -9 -102 -9 -130 -14 -240 -41 -207 -52
-347 -130 -466 -258 -159 -170 -249 -373 -273 -612 -12 -125 -5 -1393 8 -1465
43 -236 151 -417 331 -556 178 -138 365 -213 618 -248 90 -13 444 -14 512 -2
14 2 43 7 65 10 149 20 320 70 411 121 l44 25 0 -38 c4 -373 -3 -488 -34 -592
-56 -188 -192 -301 -417 -345 -115 -23 -460 -23 -564 0 -11 3 -38 7 -60 9 -72
7 -218 36 -340 66 -66 16 -122 26 -126 22 -6 -7 -144 -459 -159 -518 -7 -32
-7 -32 59 -57 68 -27 222 -72 276 -82 227 -40 428 -57 675 -58 143 -1 327 8
375 17 11 2 43 7 70 10 84 11 107 16 185 37 319 87 528 224 679 448 67 98 140
270 157 366 3 17 9 46 14 65 9 38 17 96 25 200 8 87 8 3410 1 3418 -5 4 -451
7 -576 3 -29 -1 -31 -7 -71 -146 -12 -44 -24 -82 -25 -84 -2 -1 -19 10 -40 25
-147 113 -403 216 -639 256 -52 9 -389 20 -397 13z m503 -579 c84 -10 109 -15
178 -37 120 -38 217 -95 239 -142 12 -25 16 -602 12 -1678 l0 -87 -72 -35
c-69 -34 -154 -62 -215 -73 -15 -3 -35 -7 -43 -9 -27 -8 -173 -18 -255 -18
-330 0 -513 94 -572 293 -15 49 -17 133 -18 718 0 697 3 755 44 843 42 88 134
163 246 199 98 32 303 44 456 26z"/>
</g>
</svg>
